<?xml version="1.0"?>
<svg xmlns:rdf="http://www.w3.org/1999/02/22-rdf-syntax-ns#" xmlns="http://www.w3.org/2000/svg" xmlns:cc="http://web.resource.org/cc/" xmlns:xlink="http://www.w3.org/1999/xlink" xmlns:dc="http://purl.org/dc/elements/1.1/" id="svg2359" viewBox="0 0 279.22 268.88" version="1.0">
  <g id="layer1" transform="translate(-149.62 -385.78)">
    <path id="rect3460" stroke-linejoin="round" d="m160.94 387.78c-2.47 0-4.84 0.98-6.59 2.73-1.75 1.74-2.73 4.11-2.73 6.58v246.25c0 2.47 0.98 4.84 2.73 6.59s4.12 2.73 6.59 2.73h256.59c2.47 0 4.84-0.98 6.59-2.73 1.74-1.75 2.73-4.12 2.72-6.59v-246.25c0.01-2.47-0.98-4.84-2.72-6.58-1.75-1.75-4.12-2.73-6.59-2.73h-256.59zm9.28 18.63h238v227.65h-238v-227.65z" stroke="#000" stroke-linecap="round" stroke-miterlimit="1" stroke-width="4" fill="#00f"/>
    <g id="g3218" transform="matrix(.61031 0 0 .61031 218.62 378.76)">
      <use id="use3214" xlink:href="#path2237" transform="translate(-196.43 -192.86)" height="1052.3622" width="744.09448" y="0" x="0"/>
      <path id="text2221" fill="#fff" d="m33.926 377.9h-6.348l-0.063-19.11c-4.444-0.08-8.887-0.6-13.33-1.55-4.4438-0.96-8.9083-2.38-13.394-4.29l0.00001-11.42c4.3164 2.7 8.6857 4.75 13.108 6.12 4.422 1.38 8.982 2.08 13.679 2.13v-28.95c-9.352-1.52-16.155-4.1-20.408-7.74-4.2525-3.64-6.379-8.64-6.379-14.98 0-6.9 2.3063-12.34 6.919-16.32 4.613-3.97 11.235-6.26 19.868-6.85v-14.92h6.348v14.73c3.935 0.17 7.744 0.58 11.426 1.24 3.681 0.65 7.278 1.55 10.791 2.69v11.11c-3.513-1.78-7.12-3.15-10.823-4.12-3.703-0.98-7.501-1.55-11.394-1.72v27.11c9.606 1.48 16.673 4.12 21.201 7.93s6.792 9.01 6.792 15.62c0 7.15-2.402 12.79-7.205 16.91-4.803 4.13-11.732 6.51-20.788 7.14v19.24zm-6.348-67.99v-26.02c-4.909 0.55-8.654 1.95-11.235 4.19-2.582 2.24-3.872 5.22-3.872 8.95 0 3.64 1.195 6.47 3.586 8.5 2.391 2.04 6.231 3.5 11.521 4.38zm6.348 12.19v27.49c5.374-0.72 9.426-2.25 12.156-4.57 2.729-2.33 4.094-5.4 4.094-9.21 0-3.72-1.302-6.68-3.904-8.88-2.603-2.2-6.718-3.81-12.346-4.83z"/>
    </g>
    <use id="use3216" xlink:href="#path2237" transform="matrix(.61031 0 0 .61031 98.74 157.45)" height="1052.3622" width="744.09448" y="0" x="0"/>
    <path id="text2225" fill="#fff" d="m255.21 440.18v7.05c-1.96-1.06-3.82-1.85-5.58-2.38-1.75-0.53-3.42-0.8-4.99-0.8-3.83 0-6.49 1.01-7.98 3.01-1.5 2-2.25 5.74-2.25 11.21v8.33h15.15v5.54h-15.15v18.02h21.58v6.58h-38.47v-6.58h9.14v-18.02h-7.71v-5.54h7.71v-9.22c0-6.74 1.38-11.68 4.15-14.82 2.76-3.13 7.14-4.7 13.13-4.7 1.57 0 3.34 0.2 5.29 0.6s3.94 0.97 5.98 1.72z"/>
    <g id="g3223" transform="matrix(.61031 0 0 .61031 186.66 271.66)">
      <use id="use3212" xlink:href="#path2237" transform="translate(25.714 -187.14)" height="1052.3622" width="744.09448" y="0" x="0" fill="#280b0b"/>
      <path id="text2229" fill="#fff" d="m286.81 347.77h-26.22v28.88h-12.76v-28.88h-26.4v-7.81h26.4v-3.24l-5.33-9.84h-21.07v-7.81h16.75l-20.12-37.19h12.06l24.06 44.43 23.93-44.43h12.13l-20.19 37.19h16.76v7.81h-21.01l-5.34 9.84v3.24h26.35v7.81z"/>
    </g>
    <g id="g3233" stroke="#000" stroke-width="6.554" transform="matrix(.61031 0 0 .61031 202.35 261.06)">
      <path id="path2237" opacity=".81818" stroke-linejoin="round" d="m306.43 509.51a74.286 74.286 0 1 1 -148.57 0 74.286 74.286 0 1 1 148.57 0z" transform="matrix(.95702 0 0 .95702 5.3346 23.684)" stroke="#000" stroke-width="6.8484" fill="#00f"/>
      <path id="text3505" fill="#fff" d="m253.14 474.07v12.44c-3.55-4.08-6.96-7-10.25-8.76-3.29-1.75-6.92-2.63-10.9-2.63-6.11 0-11.13 1.95-15.06 5.85-3.94 3.89-6.52 9.48-7.77 16.76h33.7l-3.21 7.18h-31.42c-0.08 0.93-0.13 1.85-0.15 2.74-0.02 0.9-0.03 2.03-0.03 3.39 0 1.25 0.01 2.32 0.03 3.21 0.02 0.9 0.07 1.81 0.15 2.75h26.04l-3.27 7.18h-21.84c1.25 7.28 3.83 12.89 7.77 16.82 3.93 3.93 8.95 5.9 15.06 5.9 3.98 0 7.61-0.88 10.9-2.63s6.7-4.67 10.25-8.76v12.32c-3.47 2.81-7 4.91-10.6 6.31-3.61 1.4-7.27 2.1-11.01 2.1-9.23 0-16.85-2.82-22.87-8.46-6.01-5.65-9.8-13.51-11.36-23.6h-12.32l3.21-7.18h8.12c0-0.9-0.01-1.8-0.03-2.72-0.02-0.91-0.03-1.99-0.03-3.24 0-1.36 0.01-2.5 0.03-3.41 0.02-0.92 0.03-1.82 0.03-2.72h-11.33l3.21-7.18h9.11c1.56-10.01 5.36-17.84 11.39-23.48 6.04-5.65 13.65-8.47 22.84-8.47 3.81 0 7.52 0.69 11.12 2.07 3.6 1.39 7.1 3.46 10.49 6.22z"/>
    </g>
  </g>
  <metadata>
    <rdf:RDF>
      <cc:Work>
        <dc:format>image/svg+xml</dc:format>
        <dc:type rdf:resource="http://purl.org/dc/dcmitype/StillImage"/>
        <cc:license rdf:resource="http://creativecommons.org/licenses/publicdomain/"/>
        <dc:publisher>
          <cc:Agent rdf:about="http://openclipart.org/">
            <dc:title>Openclipart</dc:title>
          </cc:Agent>
        </dc:publisher>
      </cc:Work>
      <cc:License rdf:about="http://creativecommons.org/licenses/publicdomain/">
        <cc:permits rdf:resource="http://creativecommons.org/ns#Reproduction"/>
        <cc:permits rdf:resource="http://creativecommons.org/ns#Distribution"/>
        <cc:permits rdf:resource="http://creativecommons.org/ns#DerivativeWorks"/>
      </cc:License>
    </rdf:RDF>
  </metadata>
</svg>
