<?xml version="1.0" standalone="no"?>
<!DOCTYPE svg PUBLIC "-//W3C//DTD SVG 20010904//EN"
 "http://www.w3.org/TR/2001/REC-SVG-20010904/DTD/svg10.dtd">
<svg version="1.0" xmlns="http://www.w3.org/2000/svg"
 width="331.000000pt" height="152.000000pt" viewBox="0 0 331.000000 152.000000"
 preserveAspectRatio="xMidYMid meet">

<g transform="translate(0.000000,152.000000) scale(0.100000,-0.100000)"
fill="#000000" stroke="none">
<path d="M1255 1483 c-590 -75 -985 -366 -985 -726 0 -184 86 -337 263 -469
182 -134 418 -223 694 -259 119 -15 458 -7 573 15 185 35 373 104 515 189 93
56 242 204 282 282 197 379 -88 767 -676 921 -141 36 -302 54 -479 53 -86 -1
-170 -4 -187 -6z m703 -455 l2 -178 -55 0 -55 0 0 125 0 125 -167 -2 -168 -3
-3 -347 -2 -348 115 0 115 0 0 -55 0 -55 -275 0 -275 0 0 55 0 55 105 0 105 0
0 350 0 350 -165 0 -164 0 -3 -122 -3 -123 -52 -3 -53 -3 0 181 0 180 498 -2
497 -3 3 -177z"/>
</g>
</svg>
